<svg fill="none" height="30" viewBox="0 0 167 30" width="167" xmlns="http://www.w3.org/2000/svg"><g fill="#161613"><path d="m42.0397 12.3012c0 2.5976 1.8195 3.8682 5.8338 4.32l.491.0564c1.5595.1695 3.0324.3671 3.0324 1.4118 0 1.1012-1.3573 1.7224-2.8302 1.7224-1.8484 0-3.7834-.96-4.6787-2.7953l-2.888 1.7788c1.3285 1.9765 3.5234 3.9529 7.48 3.9529 3.8122 0 6.4404-2.0047 6.4404-4.7435 0-2.5694-1.704-3.7271-6.296-4.2635l-.4909-.0565c-1.5018-.1694-2.5704-.4235-2.5704-1.44 0-.8471.7509-1.4118 2.1083-1.4118 1.9061 0 3.3501 1.1295 4.4476 2.4l2.6281-2.0329c-1.935-1.97647-4.0144-3.24706-6.9602-3.24706-3.3213 0-5.7472 1.75059-5.7472 4.34826z"/><path d="m57.1676 28h3.6389v-7.6235h.3466c.7509 1.1859 2.0216 2.3717 4.5631 2.3717 3.5812 0 6.5847-3.1058 6.5847-7.3976s-3.0035-7.39766-6.5847-7.39766c-2.5415 0-3.8122 1.18588-4.5631 2.37176h-.4043v-1.97646h-3.5812zm7.5667-8.4141c-2.2527 0-3.9278-1.5812-3.9278-4.2353s1.6751-4.2353 3.9278-4.2353c2.1949 0 3.9277 1.5247 3.9277 4.2353s-1.7328 4.2353-3.9277 4.2353z"/><path d="m73.8156 15.2376c0 4.3483 3.0902 7.5106 7.3645 7.5106 3.8411 0 5.5161-1.9764 6.4981-3.4447l-2.9747-1.6941c-.491.9882-1.5596 2.0894-3.5812 2.0894-2.0794 0-3.4367-1.44-3.5811-3.3035h10.4258v-1.3835c0-4.2071-2.8014-7.05886-6.9602-7.05886-4.2165 0-7.1912 3.04946-7.1912 7.28466zm3.7544-1.327c.2888-1.7224 1.3574-2.9082 3.4079-2.9082 1.8772 0 3.0325 1.1294 3.2924 2.9082z"/><path d="m89.3557 15.3506c0 4.3482 3.2924 7.3976 7.4512 7.3976 4.0141 0 6.5271-2.1741 7.2201-5.3647l-3.581-.8753c-.376 1.8353-1.3865 3.0777-3.5814 3.0777-2.3393 0-3.87-1.6941-3.87-4.2353s1.6751-4.2353 3.87-4.2353 3.3214 1.4118 3.5814 3.1059l3.581-.9036c-.751-3.1905-3.235-5.36466-7.2201-5.36466-4.1588 0-7.4512 3.04946-7.4512 7.39766z"/><path d="m104.627 8.34824v3.04936h3.639v8.2448c0 1.5811 1.213 2.7105 2.83 2.7105h3.928v-3.0494h-2.31c-.52 0-.809-.2823-.809-.847v-7.0589h3.928v-3.04936h-3.928v-4.34824h-3.639v4.34824z"/><path d="m121.838 8.34824h-3.582v14.00466h3.639v-7.9058c0-1.9765 1.329-2.9365 3.177-2.9365h2.137v-3.21883h-1.386c-1.819 0-3.032.53646-3.581 2.08943h-.404z"/><path d="m142.979 22.3529v-14.00466h-3.639v7.22826c0 2.4847-1.242 3.8964-3.581 3.8964-2.08 0-3.235-1.1576-3.235-3.1058v-8.01886h-3.639v8.35766c0 3.6423 2.397 5.8729 5.574 5.8729 2.628 0 3.957-1.1859 4.534-2.4847h.405v2.2588z"/><path d="m146.206 8.34824v14.00466h3.639v-8.527c0-1.7506 1.097-2.5977 2.599-2.5977 1.387 0 2.34.7342 2.34 2.033v9.0917h3.639v-8.527c0-1.7506 1.097-2.5977 2.599-2.5977 1.386 0 2.339.7342 2.339 2.033v9.0917h3.639v-9.3741c0-2.9082-2.108-4.85645-4.736-4.85645-2.282 0-3.437 1.07294-4.073 2.37175h-.404c-.606-1.41175-1.964-2.37175-3.812-2.37175-1.993 0-3.177.96-3.783 2.31525h-.405v-2.08936z"/><path d="m15 15h15v15h-15z"/><path d="m0 0h6v6h-6z"/><path d="m19.9993 0h10v10h-10z"/><path d="m10.0007 10.0007h10v10h-10z"/><path d="m0 19.9993h10v10h-10z"/></g></svg>