<svg width="24" height="24" viewBox="0 0 24 24" fill="none" xmlns="http://www.w3.org/2000/svg">
<path d="M11.6928 2.21919C11.2878 2.22669 10.8828 2.27169 10.4741 2.33169H10.4441C6.44658 2.98419 3.21408 6.12669 2.40408 10.1129C2.15658 11.2454 2.17158 12.3029 2.32908 13.3454C2.32908 13.3454 2.32908 13.3604 2.32908 13.3679C2.56908 15.1229 4.86033 15.8992 6.14658 14.6054C7.06908 13.6754 8.43408 13.6754 9.35658 14.6054C10.2791 15.5279 10.2791 16.8929 9.35658 17.8154C8.06658 19.0979 8.83158 21.3854 10.5941 21.6329C10.5941 21.6329 10.6091 21.6254 10.6166 21.6329C11.6441 21.7904 12.7016 21.7979 13.8266 21.5579C13.8341 21.5579 13.8341 21.5579 13.8491 21.5579C17.8391 20.8079 20.9741 17.5004 21.6303 13.5179V13.4879C22.4778 7.75044 18.2853 2.74794 12.8403 2.23794C12.4503 2.19294 12.0603 2.17794 11.6628 2.18544L11.6928 2.21919ZM11.7153 3.71919C12.0528 3.70419 12.3903 3.71169 12.7203 3.74169C17.3628 4.16169 20.8953 8.39919 20.1678 13.3042C19.6128 16.6567 16.9203 19.4842 13.5753 20.0992H13.5453C12.5853 20.3017 11.7003 20.3017 10.8003 20.1667C10.1778 20.0842 9.90033 19.4017 10.3953 18.8992C11.8653 17.4217 11.8653 15.0292 10.3953 13.5554C8.91783 12.0779 6.52533 12.0779 5.04783 13.5554C4.54533 14.0504 3.85533 13.7654 3.78033 13.1504C3.63783 12.2504 3.64533 11.3654 3.84783 10.4054C4.53033 7.03794 7.28283 4.33794 10.6428 3.79044C10.9878 3.73044 11.3328 3.70794 11.6741 3.69669L11.7153 3.71919ZM10.4966 5.24169C9.66408 5.24169 8.99658 5.90919 8.99658 6.74169C8.99658 7.56669 9.66408 8.24169 10.4966 8.24169C11.3216 8.24169 11.9966 7.56669 11.9966 6.74169C11.9966 5.90919 11.3216 5.24169 10.4966 5.24169ZM15.7466 6.74169C14.9141 6.74169 14.2466 7.40919 14.2466 8.24169C14.2466 9.06669 14.9141 9.74169 15.7466 9.74169C16.5716 9.74169 17.2466 9.06669 17.2466 8.24169C17.2466 7.40919 16.5716 6.74169 15.7466 6.74169ZM6.74658 8.24169C5.91408 8.24169 5.24658 8.90919 5.24658 9.74169C5.24658 10.5667 5.91408 11.2417 6.74658 11.2417C7.57158 11.2417 8.24658 10.5667 8.24658 9.74169C8.24658 8.90919 7.57158 8.24169 6.74658 8.24169ZM17.2466 11.9917C16.4141 11.9917 15.7466 12.6592 15.7466 13.4917C15.7466 14.3167 16.4141 14.9917 17.2466 14.9917C18.0716 14.9917 18.7466 14.3167 18.7466 13.4917C18.7466 12.6592 18.0716 11.9917 17.2466 11.9917V11.9917ZM14.2466 15.7417C13.4141 15.7417 12.7466 16.4092 12.7466 17.2417C12.7466 18.0667 13.4141 18.7417 14.2466 18.7417C15.0716 18.7417 15.7466 18.0667 15.7466 17.2417C15.7466 16.4092 15.0716 15.7417 14.2466 15.7417Z" fill="#161613"/>
</svg>
