<svg width="24" height="24" viewBox="0 0 24 24" fill="none" xmlns="http://www.w3.org/2000/svg">
<path d="M7.70969 3.96094L5.24219 6.42094L4.27469 5.45344L3.19469 6.52594L4.69469 8.02594L5.22719 8.53594L5.75969 8.01844L8.75969 5.01844L7.70969 3.96094ZM11.2422 5.24344V6.74344H20.9922V5.24344H11.2422ZM7.70219 9.95344L5.23469 12.4134L4.26719 11.4459L3.18719 12.5184L4.68719 14.0184L5.21969 14.5284L5.75219 14.0109L8.75219 11.0109L7.70219 9.95344ZM11.2347 11.2359V12.7359H20.9847V11.2359H11.2347ZM7.69469 15.9459L5.22719 18.4059L4.25969 17.4384L3.17969 18.5109L4.67969 20.0109L5.21219 20.5209L5.74469 20.0034L8.74469 17.0034L7.69469 15.9459ZM11.2272 17.2284V18.7284H20.9772V17.2284H11.2272Z" fill="#161613"/>
</svg>
