<svg width="32" height="32" viewBox="0 0 32 32" fill="none" xmlns="http://www.w3.org/2000/svg">
<path d="M16.0004 2.125L15.0904 4.185L11.8404 11.465L3.90039 12.305L1.65039 12.555L3.33039 14.055L9.23039 19.395L7.57039 27.205L7.10039 29.385L9.06039 28.26L15.9604 24.26L22.8604 28.26L24.8204 29.385L24.3504 27.195L22.6904 19.375L28.5904 14.025L30.2704 12.525L28.0204 12.275L20.0804 11.425L16.8304 4.135L16.0004 2.125ZM16.0004 7.025L18.5604 12.805L18.8104 13.335L19.3704 13.395L25.6504 14.045L20.9604 18.255L20.5204 18.655L20.6454 19.215L21.9554 25.365L16.4854 22.24L15.9854 21.92L15.4854 22.23L10.0154 25.355L11.3254 19.195L11.4504 18.625L11.0104 18.215L6.32039 13.995L12.6004 13.335L13.1604 13.265L13.4104 12.725L16.0004 7.025Z" fill="#161613"/>
</svg>
