<svg width="32" height="32" viewBox="0 0 32 32" fill="none" xmlns="http://www.w3.org/2000/svg">
<path d="M16.0002 6.99969C13.3502 6.99969 11.0502 8.22969 9.40023 10.0597C9.26023 10.0397 9.14023 9.98969 8.99023 9.98969C6.79023 9.98969 4.99023 11.7897 4.99023 13.9897C3.25023 15.0397 1.99023 16.8197 1.99023 18.9897C1.99023 22.2897 4.68023 24.9897 7.99023 24.9897H12.9902V22.9897H7.99023C5.77023 22.9897 3.99023 21.1997 3.99023 18.9897C3.99023 17.3197 4.99023 15.9097 6.42023 15.2997L7.10023 15.0097L7.00023 14.2597C6.98023 14.0897 6.96023 13.9997 6.96023 13.9697C6.96023 12.8497 7.84023 11.9697 8.96023 11.9697C9.10023 11.9697 9.25023 11.9797 9.42023 12.0297L10.0452 12.1797L10.4202 11.6797C11.7002 10.0297 13.7002 8.95969 15.9502 8.95969C19.2202 8.95969 21.9602 11.2097 22.7302 14.2397L22.9102 15.0197L23.7502 14.9797C23.9602 14.9597 24.0002 14.9397 23.9302 14.9397C26.1402 14.9397 27.9302 16.7197 27.9302 18.9397C27.9302 21.1497 26.1402 22.9397 23.9302 22.9397H18.9302V24.9397H23.9302C27.2302 24.9397 29.9302 22.2397 29.9302 18.9397C29.9302 15.7797 27.4402 13.2497 24.3302 13.0297C23.1002 9.50969 19.8402 6.92969 15.9202 6.92969L16.0002 6.99969ZM16.0002 14.9997L12.0002 18.9997H15.0002V26.9997H17.0002V18.9997H20.0002L16.0002 14.9997Z" fill="#161613"/>
</svg>
