<svg width="32" height="32" viewBox="0 0 32 32" fill="none" xmlns="http://www.w3.org/2000/svg">
<path d="M16.0002 3.99813C13.7502 3.99813 12.2302 4.87812 10.8702 5.61812C9.51023 6.34812 8.27023 6.98812 5.99023 6.98812H4.99023V7.98812C4.99023 15.6981 7.59023 20.7281 10.2402 23.7681C12.8802 26.7981 15.6152 27.9181 15.6152 27.9181L15.9902 28.0381L16.3652 27.9081C16.3652 27.9081 19.0952 26.8081 21.7402 23.7831C24.3802 20.7431 26.9902 15.7131 26.9902 7.96313V6.96313H25.9902C23.7202 6.96313 22.4702 6.32313 21.1152 5.58313C19.7552 4.84313 18.2402 3.95312 15.9902 3.95312L16.0002 3.99813ZM16.0002 5.99813C17.7502 5.99813 18.7502 6.60813 20.1502 7.37313C21.3302 8.01313 22.9002 8.63313 24.9302 8.83313C24.7302 15.5931 22.5002 19.8931 20.2402 22.4831C18.1902 24.8231 16.4702 25.6031 15.9902 25.8231C15.5002 25.6031 13.7802 24.8031 11.7402 22.4431C9.48023 19.8431 7.24023 15.5431 7.05023 8.81312C9.08023 8.60312 10.6402 7.98312 11.8302 7.34312C13.2302 6.57312 14.2302 5.96812 15.9802 5.96812L16.0002 5.99813Z" fill="#161613"/>
</svg>
