<svg width="32" height="32" viewBox="0 0 32 32" fill="none" xmlns="http://www.w3.org/2000/svg">
<path d="M16.0004 4.99922C15.8404 4.99922 15.6804 5.01922 15.5404 5.07922L3.19035 10.7692C2.93035 10.8892 2.93035 11.0692 3.19035 11.1892L15.5304 16.8792C15.6704 16.9392 15.8204 16.9592 15.9804 16.9592C16.1304 16.9592 16.2904 16.9292 16.4304 16.8692L28.7704 11.1692C29.0304 11.0492 29.0204 10.8592 28.7704 10.7392L16.4204 5.03922C16.2704 4.97922 16.1204 4.94922 15.9604 4.94922L16.0004 4.99922ZM16.0004 7.07922L24.4904 10.9892L15.9904 14.8992L7.49035 10.9792L15.9804 7.05922L16.0004 7.07922ZM4.83035 14.4392L3.18035 15.2592C2.92035 15.3892 2.92035 15.5892 3.18035 15.7192L15.5204 21.8892C15.6604 21.9492 15.8104 21.9792 15.9704 21.9792C16.1204 21.9792 16.2804 21.9392 16.4204 21.8792L28.7604 15.6992C29.0204 15.5692 29.0104 15.3592 28.7604 15.2292L27.1104 14.3992L16.4004 19.7392C16.2504 19.7992 16.1004 19.8292 15.9404 19.8292C15.7804 19.8292 15.6204 19.7892 15.4804 19.7292L4.77035 14.3792L4.83035 14.4392ZM4.83035 19.4392L3.18035 20.2592C2.92035 20.3892 2.92035 20.5892 3.18035 20.7192L15.5204 26.8892C15.6604 26.9492 15.8104 26.9792 15.9704 26.9792C16.1204 26.9792 16.2804 26.9392 16.4204 26.8792L28.7604 20.6992C29.0204 20.5692 29.0104 20.3592 28.7604 20.2292L27.1104 19.3992L16.4004 24.7392C16.2504 24.7992 16.1004 24.8292 15.9404 24.8292C15.7804 24.8292 15.6204 24.7892 15.4804 24.7292L4.77035 19.3792L4.83035 19.4392Z" fill="#161613"/>
</svg>
