<svg width="122" height="33" viewBox="0 0 122 33" fill="none" xmlns="http://www.w3.org/2000/svg">
<g clip-path="url(#clip0_522_1137)">
<path d="M19.2841 14.9819C19.2541 11.4242 22.2185 9.68996 22.3566 9.61245C20.6763 7.18105 18.0719 6.84732 17.1537 6.82349C14.9634 6.59706 12.845 8.12267 11.7289 8.12267C10.5947 8.12267 8.87835 6.84732 7.0241 6.88311C4.64169 6.91883 2.41533 8.28954 1.19715 10.4111C-1.32327 14.7436 0.555061 21.1081 2.97345 24.6123C4.17959 26.3286 5.58988 28.2416 7.43818 28.176C9.24446 28.1045 9.92255 27.0318 12.1009 27.0318C14.2613 27.0318 14.8974 28.176 16.7816 28.1343C18.72 28.1045 19.9442 26.412 21.1083 24.6838C22.5066 22.7172 23.0647 20.7805 23.0887 20.685C23.0407 20.6552 19.32 19.2429 19.2841 14.9819ZM15.7255 4.51721C16.6977 3.30747 17.3637 1.66864 17.1777 0C15.7735 0.0595621 14.0092 0.965393 13.001 2.14539C12.1069 3.18827 11.3028 4.89263 11.5129 6.49574C13.085 6.60895 14.7113 5.70311 15.7255 4.51721Z" fill="white"/>
<path d="M45.4599 27.9182H42.9336L41.5474 23.6036H36.7406L35.4203 27.9182H32.96L37.7248 13.2223H40.6652L45.4599 27.9182ZM41.1333 21.792L39.8791 17.9542C39.7471 17.5607 39.495 16.6371 39.135 15.183H39.093C38.9489 15.8087 38.7089 16.7324 38.3908 17.9542L37.1607 21.792H41.1333ZM57.6903 22.4892C57.6903 24.289 57.198 25.7133 56.2138 26.7621C55.3313 27.6918 54.2334 28.1566 52.9251 28.1566C51.5088 28.1566 50.4949 27.656 49.8771 26.6548V32.215H47.5064V20.8027C47.5064 19.6704 47.4766 18.5083 47.4164 17.3224H49.5043L49.637 19.003H49.6784C50.471 17.7396 51.6712 17.1019 53.279 17.1019C54.5393 17.1019 55.5894 17.5966 56.4299 18.5858C57.2697 19.5751 57.6903 20.8802 57.6903 22.4892ZM55.2776 22.5786C55.2776 21.5477 55.0434 20.6955 54.5756 20.028C54.0651 19.3307 53.3754 18.9851 52.511 18.9851C51.9293 18.9851 51.3949 19.1818 50.9207 19.5631C50.447 19.9505 50.1345 20.4571 49.9909 21.0768C49.9249 21.3093 49.8887 21.5536 49.8829 21.792V23.5619C49.8829 24.3306 50.1228 24.9802 50.5971 25.5166C51.0708 26.047 51.6893 26.3151 52.4508 26.3151C53.345 26.3151 54.0412 25.9695 54.5393 25.2901C55.0253 24.5988 55.2776 23.6989 55.2776 22.5786ZM69.9679 22.4892C69.9679 24.289 69.4762 25.7133 68.4914 26.7621C67.6096 27.6918 66.5116 28.1566 65.2033 28.1566C63.787 28.1566 62.7725 27.656 62.1546 26.6548V32.215H59.784V20.8027C59.784 19.6704 59.7542 18.5083 59.6941 17.3224H61.7826L61.9146 19.003H61.9567C62.7486 17.7396 63.9488 17.1019 65.5573 17.1019C66.8176 17.1019 67.8677 17.5966 68.7075 18.5858C69.5422 19.5751 69.9679 20.8802 69.9679 22.4892ZM67.5494 22.5786C67.5494 21.5477 67.3158 20.6955 66.8473 20.028C66.3375 19.3307 65.6472 18.9851 64.7834 18.9851C64.2011 18.9851 63.6667 19.1818 63.1866 19.5631C62.713 19.9505 62.4005 20.4571 62.2568 21.0768C62.1844 21.3689 62.143 21.6072 62.143 21.792V23.5619C62.143 24.3306 62.383 24.9802 62.8566 25.5166C63.3309 26.047 63.9488 26.3151 64.7175 26.3151C65.6109 26.3151 66.3071 25.9695 66.8054 25.2901C67.3035 24.5988 67.5494 23.6989 67.5494 22.5786ZM83.6922 23.8002C83.6922 25.0517 83.2542 26.0708 82.3781 26.8515C81.418 27.7097 80.0677 28.1388 78.3453 28.1388C76.755 28.1388 75.4771 27.8348 74.5106 27.2209L75.0566 25.2604C76.095 25.8742 77.2409 26.178 78.4832 26.178C79.3773 26.178 80.0735 25.9755 80.5717 25.5762C81.0699 25.1769 81.3216 24.6406 81.3216 23.9731C81.3216 23.3772 81.1119 22.8766 80.7037 22.4653C80.2954 22.0602 79.6173 21.6787 78.6637 21.3331C76.0711 20.3736 74.7746 18.9672 74.7746 17.1258C74.7746 15.922 75.2306 14.9327 76.1488 14.164C77.0611 13.3952 78.2735 13.0078 79.7856 13.0078C81.13 13.0078 82.252 13.2402 83.1462 13.7051L82.5521 15.624C81.7117 15.1711 80.7697 14.9506 79.7073 14.9506C78.8733 14.9506 78.2133 15.1532 77.7449 15.5584C77.3489 15.922 77.151 16.363 77.151 16.8875C77.151 17.4654 77.3794 17.9482 77.8355 18.3236C78.2315 18.6693 78.9452 19.0506 79.9836 19.4559C81.2555 19.9684 82.1918 20.5584 82.7922 21.2437C83.392 21.9291 83.6922 22.7813 83.6922 23.8002ZM91.5537 19.0924H88.9369V24.2353C88.9369 25.5464 89.3989 26.196 90.3238 26.196C90.749 26.196 91.0971 26.1602 91.3797 26.0887L91.4451 27.8765C90.9778 28.0494 90.3651 28.1388 89.6033 28.1388C88.667 28.1388 87.9346 27.8526 87.4067 27.2866C86.8788 26.7204 86.6147 25.7669 86.6147 24.432V19.0924H85.0606V17.3284H86.6147V15.3856L88.9433 14.6884V17.3284H91.5591L91.5537 19.0924ZM103.321 22.5369C103.321 24.1638 102.853 25.5047 101.917 26.5476C100.939 27.6262 99.6371 28.1626 98.0107 28.1626C96.4445 28.1626 95.1957 27.6441 94.2655 26.6191C93.3361 25.5881 92.8742 24.283 92.8742 22.7157C92.8742 21.0709 93.3541 19.73 94.3139 18.6811C95.2747 17.6323 96.5647 17.1138 98.1901 17.1138C99.7564 17.1138 101.017 17.6323 101.965 18.6633C102.865 19.6585 103.321 20.9517 103.321 22.5369ZM100.862 22.5906C100.862 21.6191 100.651 20.7848 100.225 20.0935C99.7268 19.2533 99.0181 18.8302 98.095 18.8302C97.146 18.8302 96.414 19.2533 95.9224 20.0935C95.4963 20.7907 95.2864 21.637 95.2864 22.6382C95.2864 23.6096 95.4963 24.4439 95.9224 25.1412C96.4328 25.9814 97.1522 26.4046 98.0762 26.4046C98.9831 26.4046 99.6909 25.9755 100.207 25.1233C100.645 24.4022 100.862 23.5619 100.862 22.5906ZM111.032 19.3963C110.787 19.3546 110.535 19.3307 110.282 19.3307C109.448 19.3307 108.807 19.6406 108.35 20.2664C107.955 20.8206 107.756 21.5178 107.756 22.3581V27.9182H105.385V20.6597C105.385 19.5453 105.367 18.4368 105.32 17.3224H107.384L107.468 19.3486H107.534C107.786 18.6513 108.176 18.0912 108.722 17.668C109.214 17.2985 109.82 17.1019 110.439 17.1019C110.661 17.1019 110.852 17.1198 111.032 17.1437V19.3963ZM121.637 22.1197C121.643 22.4773 121.612 22.8349 121.552 23.1864H114.435C114.459 24.2353 114.807 25.0338 115.467 25.5881C116.067 26.0827 116.842 26.3271 117.796 26.3271C118.852 26.3271 119.812 26.1602 120.677 25.8264L121.048 27.4593C120.04 27.8944 118.846 28.1149 117.472 28.1149C115.816 28.1149 114.519 27.6322 113.571 26.6668C112.629 25.7013 112.155 24.4022 112.155 22.7753C112.155 21.1782 112.592 19.8492 113.475 18.7884C114.394 17.6561 115.642 17.09 117.208 17.09C118.744 17.09 119.908 17.6561 120.7 18.7884C121.318 19.6883 121.637 20.7967 121.637 22.1197ZM119.374 21.5118C119.392 20.8146 119.236 20.2127 118.912 19.7002C118.504 19.0447 117.868 18.7169 117.021 18.7169C116.248 18.7169 115.617 19.0387 115.131 19.6764C114.735 20.1829 114.501 20.7967 114.429 21.5059L119.374 21.5118Z" fill="white"/>
<path d="M36.0568 8.03103C35.3967 8.03103 34.8266 8.00122 34.3525 7.94757V0.838031C35.0187 0.736705 35.6908 0.683053 36.3629 0.689028C39.0813 0.689028 40.3356 2.01797 40.3356 4.18122C40.3295 6.6782 38.8533 8.03103 36.0568 8.03103ZM36.4588 1.60084C36.0928 1.60084 35.7807 1.62467 35.5228 1.67826V7.07753C35.6607 7.10136 35.9308 7.10727 36.3088 7.10727C38.0911 7.10727 39.1053 6.10018 39.1053 4.21701C39.0993 2.5305 38.1812 1.60084 36.4588 1.60084ZM44.2362 8.08462C42.7059 8.08462 41.7097 6.94638 41.7097 5.40291C41.7097 3.79384 42.7239 2.64969 44.3202 2.64969C45.8324 2.64969 46.8468 3.73428 46.8468 5.31945C46.8468 6.94638 45.8024 8.08462 44.2362 8.08462ZM44.2781 3.4959C43.438 3.4959 42.8979 4.27657 42.8979 5.3731C42.8979 6.44579 43.45 7.22646 44.2661 7.22646C45.0883 7.22646 45.6344 6.39214 45.6344 5.34926C45.6403 4.28852 45.1003 3.4959 44.2781 3.4959ZM55.584 2.75694L53.9457 7.96543H52.8775L52.1994 5.70683C52.0312 5.15258 51.8876 4.59243 51.7795 4.0263H51.7556C51.6714 4.59243 51.5091 5.16453 51.335 5.70683L50.6149 7.96543H49.5351L47.9926 2.75694H49.1928L49.7867 5.23007C49.9252 5.82004 50.0449 6.37428 50.1413 6.90469H50.1653C50.2493 6.46366 50.393 5.92137 50.5975 5.24202L51.3415 2.75694H52.2894L53.0036 5.18837C53.1777 5.77834 53.3156 6.35642 53.4236 6.90469H53.4533C53.5317 6.3683 53.6455 5.80218 53.8079 5.18837L54.4439 2.75694H55.584ZM61.627 7.96543H60.4631V4.97383C60.4631 4.05014 60.1084 3.59125 59.4064 3.59125C58.7167 3.59125 58.2425 4.18122 58.2425 4.86654V7.96543H57.0785V4.24675C57.0785 3.78793 57.0662 3.29331 57.0365 2.75694H58.0626L58.1163 3.56144H58.146C58.4586 3.00726 59.0946 2.64969 59.8089 2.64969C60.9068 2.64969 61.6328 3.48401 61.6328 4.84867L61.627 7.96543ZM64.8374 7.96543H63.6734V0.367188H64.8374V7.96543ZM69.0921 8.08462C67.562 8.08462 66.5656 6.94638 66.5656 5.40291C66.5656 3.79384 67.5801 2.64969 69.1763 2.64969C70.6884 2.64969 71.7028 3.73428 71.7028 5.31945C71.7028 6.94638 70.6527 8.08462 69.0921 8.08462ZM69.1342 3.4959C68.2937 3.4959 67.7542 4.27657 67.7542 5.3731C67.7542 6.44579 68.306 7.22646 69.1219 7.22646C69.9442 7.22646 70.4903 6.39214 70.4903 5.34926C70.4903 4.28852 69.9565 3.4959 69.1342 3.4959ZM76.2992 7.96543L76.215 7.36351H76.1853C75.8314 7.84624 75.3092 8.07864 74.6493 8.07864C73.7066 8.07864 73.0408 7.42314 73.0408 6.54712C73.0408 5.25989 74.1628 4.59841 76.107 4.59841V4.50305C76.107 3.81767 75.7414 3.47206 75.0213 3.47206C74.505 3.47206 74.0488 3.6032 73.6529 3.85944L73.4186 3.09663C73.9052 2.79863 74.5108 2.64372 75.2193 2.64372C76.5871 2.64372 77.2833 3.35885 77.2833 4.79501V6.71398C77.2833 7.23842 77.3072 7.64957 77.3616 7.95946L76.2992 7.96543ZM76.1374 5.3731C74.8408 5.3731 74.1932 5.68299 74.1932 6.42196C74.1932 6.97022 74.5289 7.23841 74.9909 7.23841C75.5855 7.23841 76.1374 6.79141 76.1374 6.17761V5.3731ZM82.9303 7.96543L82.8766 7.13111H82.8462C82.5104 7.76284 81.9463 8.08462 81.1601 8.08462C79.8939 8.08462 78.9577 6.98217 78.9577 5.42675C78.9577 3.79982 79.9301 2.64969 81.2559 2.64969C81.9586 2.64969 82.4561 2.88209 82.7324 3.35885H82.7563V0.367188H83.9202V6.55901C83.9202 7.0596 83.9325 7.53635 83.9623 7.95946H82.9303V7.96543ZM82.7621 4.90232C82.7621 4.17524 82.2762 3.54955 81.5322 3.54955C80.6678 3.54955 80.1398 4.31236 80.1398 5.37907C80.1398 6.42794 80.6859 7.14904 81.5082 7.14904C82.24 7.14904 82.7621 6.51731 82.7621 5.76646V4.90232ZM91.3262 8.08462C89.7958 8.08462 88.7993 6.94638 88.7993 5.40291C88.7993 3.79384 89.8128 2.64969 91.4096 2.64969C92.9221 2.64969 93.9357 3.73428 93.9357 5.31945C93.9357 6.94638 92.8924 8.08462 91.3262 8.08462ZM91.3683 3.4959C90.5278 3.4959 89.9869 4.27657 89.9869 5.3731C89.9869 6.44579 90.5395 7.22646 91.3558 7.22646C92.1784 7.22646 92.7238 6.39214 92.7238 5.34926C92.7301 4.28852 92.19 3.4959 91.3683 3.4959ZM100.207 7.96543H99.0427V4.97383C99.0427 4.05014 98.6892 3.59125 97.9868 3.59125C97.2961 3.59125 96.8225 4.18122 96.8225 4.86654V7.96543H95.6581V4.24675C95.6581 3.78793 95.6464 3.29331 95.6159 2.75694H96.6422L96.6969 3.56144H96.7265C97.0387 3.00726 97.6747 2.64969 98.3887 2.64969C99.4876 2.64969 100.213 3.48401 100.213 4.84867V7.96543H100.207ZM108.045 3.62698H106.76V6.15377C106.76 6.79738 106.983 7.11922 107.438 7.11922C107.642 7.11922 107.816 7.09539 107.955 7.06558L107.985 7.94159C107.757 8.02505 107.456 8.07274 107.079 8.07274C106.16 8.07274 105.608 7.57214 105.608 6.24912V3.62106H104.84V2.75096H105.608V1.79745L106.755 1.45183V2.75096H108.038L108.045 3.62698ZM114.22 7.96543H113.055V4.99767C113.055 4.06801 112.701 3.59722 111.999 3.59722C111.392 3.59722 110.835 4.00246 110.835 4.83081V7.97141H109.67V0.367188H110.835V3.4959H110.859C111.226 2.92977 111.759 2.64969 112.437 2.64969C113.547 2.64969 114.225 3.50778 114.225 4.86654L114.22 7.96543ZM120.538 5.64129H117.039C117.064 6.62461 117.718 7.18476 118.69 7.18476C119.206 7.18476 119.686 7.10136 120.106 6.94041L120.287 7.74491C119.788 7.95946 119.206 8.06676 118.528 8.06676C116.89 8.06676 115.918 7.03576 115.918 5.44462C115.918 3.84749 116.914 2.64969 118.396 2.64969C119.734 2.64969 120.575 3.63295 120.575 5.12284C120.586 5.2897 120.575 5.46845 120.538 5.64129ZM119.47 4.81294C119.47 4.00838 119.062 3.44225 118.319 3.44225C117.646 3.44225 117.118 4.02033 117.046 4.81294H119.47Z" fill="white"/>
</g>
<defs>
<clipPath id="clip0_522_1137">
<rect width="122" height="33" fill="white"/>
</clipPath>
</defs>
</svg>
