<svg width="24" height="24" viewBox="0 0 24 24" fill="none" xmlns="http://www.w3.org/2000/svg">
<path d="M14.4825 5.21984C14.0625 5.21984 13.65 5.24234 13.215 5.35484C12.7725 5.46734 12.3375 5.65484 11.8725 5.96234C11.295 5.62484 10.74 5.33984 10.2075 5.27984C9.54004 5.19734 8.92504 5.23484 8.21254 5.24984C7.36504 5.26484 6.81004 5.69984 5.91004 6.04484C5.01004 6.38984 3.85504 6.71984 2.22754 6.71984H1.47754V13.9386L1.89754 14.1486L3.27754 14.8236L8.19754 20.3061L8.22004 20.3286C8.78254 20.8836 9.54004 21.0186 10.2075 20.9848C10.875 20.9398 11.505 20.7448 12.0075 20.4448C13.11 19.7698 16.1325 17.6773 16.1325 17.6773L16.2 17.6248L16.245 17.5723C16.5975 17.2123 16.7775 16.7773 16.9013 16.3273L19.7813 14.8723L21.9375 14.1448L22.4475 13.9798V6.68984H21.6975C20.07 6.68984 18.9075 6.33734 18.015 5.98484C17.115 5.63234 16.5675 5.20484 15.7125 5.18234C15.255 5.16734 14.835 5.15234 14.4225 5.15234L14.4825 5.21984ZM14.505 6.71984C14.835 6.71234 15.225 6.72734 15.72 6.74234C15.795 6.74234 16.515 7.04984 17.52 7.43984C18.3675 7.76984 19.545 8.06234 20.9888 8.15984V12.9411L19.2488 13.5261H19.1963L19.1438 13.5486L16.8638 14.6961C16.7363 14.3511 16.5638 14.0361 16.3013 13.7586L16.2488 13.6836L13.0613 9.76859L12.5888 9.17609L11.9963 9.64109L9.97879 11.2761C9.29629 11.7411 8.74879 11.6061 8.19379 11.3436C8.02879 11.2611 8.03629 11.2386 7.91254 11.1561L11.3325 8.31359L11.3775 8.26109C12.39 7.24859 13.0125 6.90359 13.5525 6.76109C13.815 6.68609 14.1 6.66359 14.4375 6.66734L14.505 6.71984ZM9.27754 6.74234C9.56254 6.73484 9.80254 6.73484 10.0275 6.76484C10.2225 6.78734 10.44 6.95234 10.635 7.01984C10.5525 7.08734 10.5 7.12484 10.4175 7.20734C10.395 7.22234 10.3875 7.22984 10.365 7.25234L6.26254 10.6498L5.62504 11.1598L6.18754 11.7448C6.18754 11.7448 6.72754 12.3298 7.56754 12.7273C8.40754 13.1248 9.70504 13.3498 10.8675 12.5398L10.9125 12.4873L12.36 11.2873L15.12 14.6848L15.1425 14.7298L15.165 14.7523C15.66 15.2398 15.645 16.0048 15.165 16.5073C15.1575 16.5073 15.165 16.5223 15.165 16.5298C15.1575 16.5298 15.0525 16.5898 15.045 16.5973L14.055 15.2548L12.8363 16.1398L13.7963 17.4223C13.4063 17.6848 13.2263 17.8198 12.8063 18.0973L11.7938 16.7323L10.5713 17.6173L11.5313 18.8998C11.4413 18.9523 11.2688 19.0648 11.2013 19.1098C10.9613 19.2523 10.5038 19.4098 10.0988 19.4323C9.70879 19.4473 9.41629 19.3648 9.27379 19.2448L9.24379 19.2148L4.22629 13.6573L4.12879 13.5373L2.90629 12.9223V8.06984C4.33879 7.97234 5.52379 7.68734 6.37504 7.36484C7.37254 6.97484 8.08504 6.65984 8.17504 6.65984C8.55754 6.64484 8.89504 6.63734 9.18004 6.62984L9.27754 6.74234Z" fill="#161613"/>
</svg>
