<svg width="133" height="31" viewBox="0 0 133 31" fill="none" xmlns="http://www.w3.org/2000/svg">
<g clip-path="url(#clip0_522_1144)">
<path d="M43.4094 3.8424C43.4094 4.7474 43.1816 5.53929 42.6119 6.10489C41.9282 6.78361 41.1307 7.12299 40.1053 7.12299C39.0799 7.12299 38.2822 6.78361 37.5987 6.10489C36.9151 5.42611 36.5732 4.63429 36.5732 3.61618C36.5732 2.59808 36.9151 1.80626 37.5987 1.12748C38.2822 0.448765 39.0799 0.109375 40.1053 0.109375C40.561 0.109375 41.0168 0.222483 41.4725 0.448765C41.9282 0.674981 42.27 0.901263 42.4979 1.24059L41.9282 1.80619C41.4725 1.24059 40.9028 1.01437 40.1053 1.01437C39.4216 1.01437 38.738 1.24059 38.2822 1.80619C37.7126 2.25869 37.4848 2.93747 37.4848 3.7293C37.4848 4.52118 37.7126 5.1999 38.2822 5.65239C38.8519 6.10489 39.4216 6.44422 40.1053 6.44422C40.9028 6.44422 41.4725 6.218 42.0422 5.65239C42.384 5.313 42.6119 4.8605 42.6119 4.2949H40.1053V3.50308H43.4094V3.8424Z" fill="white" stroke="white" stroke-width="0.2" stroke-miterlimit="10"/>
<path d="M48.6509 1.01437H45.5746V3.16369H48.4229V3.95558H45.5746V6.10489H48.6509V6.89671H44.6631V0.109375H48.6509V1.01437Z" fill="white" stroke="white" stroke-width="0.2" stroke-miterlimit="10"/>
<path d="M52.4113 6.89671H51.4994V0.901263H49.5625V0.109375H54.3477V0.901263H52.4113V6.89671Z" fill="white" stroke="white" stroke-width="0.2" stroke-miterlimit="10"/>
<path d="M57.6514 6.89671V0.109375H58.5624V6.89671H57.6514Z" fill="white" stroke="white" stroke-width="0.2" stroke-miterlimit="10"/>
<path d="M62.4369 6.89671H61.5259V0.901263H59.5889V0.109375H64.2602V0.901263H62.3231V6.89671H62.4369Z" fill="white" stroke="white" stroke-width="0.2" stroke-miterlimit="10"/>
<path d="M73.2604 6.10489C72.577 6.78361 71.7792 7.12299 70.7538 7.12299C69.7283 7.12299 68.9311 6.78361 68.2471 6.10489C67.5637 5.42611 67.2217 4.63429 67.2217 3.61618C67.2217 2.59808 67.5637 1.80626 68.2471 1.12748C68.9311 0.448765 69.7283 0.109375 70.7538 0.109375C71.7792 0.109375 72.577 0.448765 73.2604 1.12748C73.9439 1.80626 74.2858 2.59808 74.2858 3.61618C74.2858 4.52118 73.9439 5.42611 73.2604 6.10489ZM68.9311 5.53929C69.387 5.99179 70.0704 6.33111 70.7538 6.33111C71.4378 6.33111 72.1212 6.10489 72.577 5.53929C73.0329 5.08679 73.3743 4.40808 73.3743 3.61618C73.3743 2.8243 73.1466 2.14558 72.577 1.69309C72.1212 1.24059 71.4378 0.901263 70.7538 0.901263C70.0704 0.901263 69.387 1.12748 68.9311 1.69309C68.4754 2.14558 68.1333 2.8243 68.1333 3.61618C68.1333 4.2949 68.3615 4.97368 68.9311 5.53929Z" fill="white" stroke="white" stroke-width="0.2" stroke-miterlimit="10"/>
<path d="M75.54 6.89671V0.109375H76.5654L79.8693 5.42611V4.06868V0.109375H80.781V6.89671H79.8693L76.3372 1.35376V2.71119V6.89671H75.54Z" fill="white" stroke="white" stroke-width="0.2" stroke-miterlimit="10"/>
<path d="M66.9942 16.8558C64.2599 16.8558 62.0953 18.8921 62.0953 21.7202C62.0953 24.4351 64.2599 26.5844 66.9942 26.5844C69.7284 26.5844 71.8937 24.5482 71.8937 21.7202C71.8937 18.8921 69.7284 16.8558 66.9942 16.8558ZM66.9942 24.5482C65.5129 24.5482 64.2599 23.3038 64.2599 21.607C64.2599 19.9102 65.5129 18.6659 66.9942 18.6659C68.4754 18.6659 69.7284 19.797 69.7284 21.607C69.7284 23.417 68.4754 24.5482 66.9942 24.5482ZM56.3979 16.8558C53.6636 16.8558 51.4989 18.8921 51.4989 21.7202C51.4989 24.4351 53.6636 26.5844 56.3979 26.5844C59.1328 26.5844 61.2974 24.5482 61.2974 21.7202C61.2974 18.8921 59.1328 16.8558 56.3979 16.8558ZM56.3979 24.5482C54.9173 24.5482 53.6636 23.3038 53.6636 21.607C53.6636 19.9102 54.9173 18.6659 56.3979 18.6659C57.8791 18.6659 59.1328 19.797 59.1328 21.607C59.1328 23.417 57.8791 24.5482 56.3979 24.5482ZM43.7513 18.3264V20.3627H48.6505C48.5366 21.4939 48.0808 22.3988 47.5111 22.9645C46.8276 23.6432 45.6881 24.4351 43.7513 24.4351C40.675 24.4351 38.3962 22.0595 38.3962 19.0052C38.3962 15.9509 40.7889 13.5753 43.7513 13.5753C45.3464 13.5753 46.5997 14.254 47.5111 15.0459L48.9923 13.5753C47.739 12.4441 46.1439 11.5391 43.8652 11.5391C39.7635 11.5391 36.2314 14.9328 36.2314 19.0052C36.2314 23.0775 39.7635 26.4713 43.8652 26.4713C46.1439 26.4713 47.739 25.7926 49.1062 24.322C50.4735 22.9645 50.9292 21.0414 50.9292 19.5708C50.9292 19.1184 50.9292 18.6659 50.8153 18.3264H43.7513ZM95.4786 19.9102C95.0228 18.7789 93.8826 16.8558 91.3767 16.8558C88.8701 16.8558 86.8192 18.7789 86.8192 21.7202C86.8192 24.4351 88.8701 26.5844 91.6043 26.5844C93.7689 26.5844 95.1365 25.2269 95.5924 24.4351L93.9973 23.3038C93.4277 24.0957 92.7434 24.6613 91.6043 24.6613C90.4651 24.6613 89.7811 24.2089 89.2115 23.1908L95.7061 20.4757L95.4786 19.9102ZM88.8701 21.4939C88.8701 19.6839 90.3514 18.6659 91.3767 18.6659C92.1738 18.6659 92.9718 19.1183 93.1993 19.6839L88.8701 21.4939ZM83.5147 26.1319H85.6794V11.9916H83.5147V26.1319ZM80.097 17.8739C79.5268 17.3083 78.6159 16.7428 77.4759 16.7428C75.0838 16.7428 72.8047 18.8921 72.8047 21.607C72.8047 24.322 74.9699 26.3582 77.4759 26.3582C78.6159 26.3582 79.5268 25.7926 79.9827 25.2269H80.097V25.9056C80.097 27.7156 79.0717 28.7337 77.4759 28.7337C76.223 28.7337 75.3113 27.8287 75.0838 27.0369L73.2605 27.8287C73.8301 29.0731 75.1975 30.6568 77.5904 30.6568C80.097 30.6568 82.1479 29.1862 82.1479 25.6794V17.0821H80.097V17.8739ZM77.5904 24.5482C76.1092 24.5482 74.8555 23.3038 74.8555 21.607C74.8555 19.9102 76.1092 18.6659 77.5904 18.6659C79.0717 18.6659 80.2109 19.9102 80.2109 21.607C80.2109 23.3038 79.0717 24.5482 77.5904 24.5482ZM105.39 11.9916H100.264V26.1319H102.429V20.8152H105.39C107.783 20.8152 110.062 19.1183 110.062 16.4034C110.062 13.6885 107.783 11.9916 105.39 11.9916ZM105.504 18.8921H102.429V14.0278H105.504C107.099 14.0278 108.011 15.3853 108.011 16.4034C107.897 17.5346 106.985 18.8921 105.504 18.8921ZM118.608 16.8558C117.012 16.8558 115.417 17.5346 114.847 19.0052L116.784 19.797C117.24 19.0052 117.924 18.7789 118.722 18.7789C119.861 18.7789 120.886 19.4577 121 20.589V20.702C120.658 20.4757 119.747 20.1365 118.835 20.1365C116.784 20.1365 114.733 21.2677 114.733 23.3038C114.733 25.2269 116.442 26.4713 118.266 26.4713C119.747 26.4713 120.43 25.7926 121 25.1139H121.114V26.2451H123.165V20.8152C122.936 18.2134 121 16.8558 118.608 16.8558ZM118.379 24.5482C117.696 24.5482 116.671 24.2089 116.671 23.3038C116.671 22.1726 117.924 21.8333 118.949 21.8333C119.861 21.8333 120.317 22.0596 120.886 22.2858C120.658 23.6433 119.519 24.5482 118.379 24.5482ZM130.342 17.0821L127.95 23.1908H127.836L125.329 17.0821H123.05L126.811 25.6794L124.645 30.4306H126.811L132.621 17.0821H130.342ZM111.201 26.1319H113.366V11.9916H111.201V26.1319Z" fill="white"/>
<path d="M0.683594 28.9557C0.227843 28.7295 0 28.1639 0 27.5983C0 27.4852 0 27.2589 0 27.1458C0 18.7747 0 10.4036 0 2.14569C0 1.69319 0.113921 1.35387 0.227843 0.90137C0.34183 0.675089 0.569673 0.448872 0.797582 0.222656C5.69679 5.0869 10.4821 9.9511 15.2674 14.8155C10.3681 19.3403 5.58287 24.0915 0.683594 28.9557Z" fill="white"/>
<path d="M20.0527 9.84168C18.6854 11.1991 17.2043 12.5565 15.837 14.0271C11.2796 9.38917 6.60822 4.75113 2.05078 0.113108C2.05078 0.113108 2.05078 0 2.1647 0C8.0894 3.28053 14.014 6.56112 20.0527 9.84168Z" fill="white"/>
<path d="M2.05078 28.9575C6.60822 24.4325 11.2796 19.9077 15.837 15.3828C17.0903 16.6271 18.4576 17.8715 19.9387 19.2289C14.014 22.5095 8.0894 25.7901 2.1647 28.9575H2.05078Z" fill="white"/>
<path d="M20.7367 18.781C19.2555 17.4236 17.8884 16.0661 16.4072 14.7086C17.8884 13.238 19.3695 11.7675 20.8506 10.2969C21.3064 10.5231 21.7622 10.7494 22.2179 11.0887C23.3573 11.7675 24.6106 12.333 25.75 13.0117C26.0917 13.1249 26.3196 13.3512 26.5474 13.6905C27.0032 14.2561 27.0032 14.8218 26.5474 15.3873C26.3196 15.6136 26.0917 15.8399 25.75 15.953C24.1548 16.9711 22.4458 17.8761 20.7367 18.781Z" fill="white"/>
</g>
<defs>
<clipPath id="clip0_522_1144">
<rect width="133" height="31" fill="white"/>
</clipPath>
</defs>
</svg>
