<svg width="20" height="20" viewBox="0 0 20 20" fill="none" xmlns="http://www.w3.org/2000/svg">
<path d="M13.5945 2.49922C12.5445 2.49922 11.557 2.91172 10.8195 3.64922L9.90078 4.56172C9.15703 5.29922 8.74453 6.28672 8.74453 7.33047C8.74453 7.82422 8.83828 8.30547 9.01328 8.75547L10.0258 7.73672C9.89453 6.92422 10.1445 6.04922 10.7633 5.43047L11.6758 4.51172C12.1758 4.00547 12.857 3.73047 13.5695 3.73047C14.2758 3.73047 14.9383 4.00547 15.4445 4.51172C16.482 5.54922 16.482 7.24297 15.4445 8.28047L14.5258 9.19297C14.0195 9.69297 13.3383 9.97422 12.6258 9.97422C12.482 9.97422 12.3445 9.95547 12.2133 9.93047L11.1945 10.943C11.6383 11.118 12.1195 11.2117 12.6195 11.2117C13.6633 11.2117 14.6508 10.793 15.3883 10.0555L16.3008 9.13672C17.0383 8.39297 17.4508 7.40547 17.4508 6.36172C17.4508 5.31172 17.032 4.34297 16.2945 3.60547C15.557 2.86172 14.582 2.44922 13.5383 2.44922L13.5945 2.49922ZM12.0508 7.04922L7.05078 12.0492L7.94453 12.943L12.9445 7.94297L12.0508 7.04922ZM7.33828 8.74297C6.28828 8.74297 5.30078 9.15547 4.56328 9.89297L3.64453 10.8055C2.90078 11.543 2.48828 12.5305 2.48828 13.5742C2.48828 14.618 2.90078 15.5867 3.63828 16.3242C4.36953 17.0617 5.34453 17.4742 6.38828 17.4742C7.43203 17.4742 8.41953 17.0555 9.15703 16.318L10.0695 15.3992C10.807 14.6555 11.2195 13.668 11.2195 12.6242C11.2195 12.1242 11.1195 11.643 10.9445 11.193L9.92578 12.2055C10.0508 13.0117 9.80078 13.8867 9.18203 14.5055L8.26328 15.418C7.75703 15.918 7.07578 16.1992 6.36328 16.1992C5.65078 16.1992 4.98828 15.918 4.48828 15.418C3.44453 14.3742 3.44453 12.6805 4.48828 11.643L5.40078 10.7242C5.90078 10.218 6.58203 9.94297 7.29453 9.94297C7.43203 9.94297 7.56953 9.95547 7.70078 9.98047L8.71328 8.96172C8.26328 8.78047 7.78203 8.68672 7.28203 8.68672L7.33828 8.74297Z" fill="white"/>
</svg>
